<?xml version="1.0" encoding="UTF-8"?>
<svg version="1.1" viewBox="0 0 2048 1394" width="1280" height="1280" xmlns="http://www.w3.org/2000/svg">
<path transform="translate(0)" d="m0 0h2048v1394h-2048z" fill="#FBFBFB"/>
<path transform="translate(0)" d="m0 0h2048v1394h-2048zm137 9-17 2-16 4-19 8-16 10-14 12-7 7-10 13-10 17-6 14-5 20-2 22v1123l2 20 5 20 8 18 10 16 13 15 11 10 13 9 17 9 21 7 12 2 12 1h1774l17-2 16-4 15-6 15-8 12-9 12-11 9-10 10-15 8-17 5-16 3-16 1-18v-1116l-1-17-4-20-6-17-9-17-9-12-9-10-12-11-15-10-16-8-15-5-15-3-12-1z" fill="#020101"/>
<path transform="translate(416,620)" d="m0 0h26l6 2 5 5 7 21 17 65 2 7 2-4 8-29 14-52 4-9 6-5 4-1h27l8 3 4 5 2 5v137l-2 7-5 6-7 3-8-1-6-4-4-8-1-10v-87l-1-1-18 71-6 23-5 10-6 5-6 2-9-1-6-3-7-8-6-20-17-67-3-12-1 92-2 9-4 6-5 3-7 1-8-3-5-6-2-7v-136l2-6 5-5z" fill="#B30827"/>
<path transform="translate(0)" d="m0 0h132v1l-20 4-16 5-16 7-16 10-13 11-11 11-10 14-9 16-7 17-4 16-2 16v1138l2 18 4 17 8 19 6 11 10 14 11 12 11 10 15 10 16 8 22 8v1h-113z"/>
<path transform="translate(1427,360)" d="m0 0 17 1 10 3 10 6 8 9 4 10v14l-3 9-6 9-12 10-8 5 2 4 11 13 10 11 3-4 8-16 5-4h11l6 5 2 6-1 9-5 14-5 9-1 4 4 2 13 11 6 7 1 3v7l-4 7-6 3h-8l-10-5-15-12-4 1-11 8-16 6-15 2h-14l-15-3-16-8-9-9-6-10-3-13v-9l3-12 6-10 9-9 10-7 7-4-1-4-8-12-4-10v-19l6-12 7-7 14-7z" fill="#020101"/>
<path transform="translate(927,404)" d="m0 0 10 2 4 5 2 5 1 59-1 54-4 16-6 10-9 8-11 5-15 3h-26l-15-3-12-5-9-7-5-8-1-3v-9l5-6 7-2 7 1 6 4 9 10 8 4 4 1h14l10-3 5-3 4-7 2-9 1-16h-2l-9 8-11 5-5 1h-17l-9-2-10-5-10-9-8-14-4-14-1-9v-19l4-16 6-12 7-8 9-6 10-4 5-1h18l13 4 10 7 4 4v2l2-1 2-9 5-6z" fill="#020101"/>
<path transform="translate(1010,1136)" d="m0 0h7l7 3 4 6 1 4 1 46 11-8 11-5 5-1h19l13 4 10 6 8 9 6 12 3 11 1 10v18l-3 16-4 10-7 10-7 7-14 7-9 2h-11l-14-3-9-5-8-7-3-1v7l-4 6-6 3h-7l-7-3-3-4-2-8v-126l1-16 4-7z" fill="#020101"/>
<path transform="translate(1919)" d="m0 0h129v1394h-110l2-2 20-7 21-11 16-12 15-15 11-16 10-19 5-15 4-18 1-10v-1142l-3-20-5-16-5-12-8-15-9-12-9-10-8-8-13-10-18-10-15-6-25-6-6-1z"/>
<path transform="translate(1477,662)" d="m0 0h14l12 2 13 5 11 8 7 8 7 14 3 12v25l-4 14-5 10-7 9-11 8-12 5-8 2-15 1-15-2-11-4-10-6-7-6-7-10-5-12-2-8-1-16 2-16 5-13 6-10 8-8 10-6 10-4z" fill="#020101"/>
<path transform="translate(1526,923)" d="m0 0h19l16 4 12 6 9 8 7 11 5 13 2 13v13l-3 16-4 10-8 11-8 7-14 7-12 3h-22l-13-3-13-7-10-9-8-13-4-13-1-7v-17l2-12 5-12 5-8 7-8 11-7 10-4z" fill="#020101"/>
<path transform="translate(1613,1181)" d="m0 0h25l12 3 12 6 10 9 6 8 5 11 3 15v18l-3 14-4 9-6 9-4 5-10 7-11 5-7 2-8 1h-14l-15-3-16-8-10-10-6-10-4-11-2-12v-13l2-14 5-12 6-10 8-8 12-7z" fill="#020101"/>
<path transform="translate(1182,1181)" d="m0 0h25l12 3 13 7 9 8 7 11 4 9 2 9v27l-3 12-6 12-11 12-14 8-11 3-7 1h-14l-16-3-14-7-10-9-7-11-4-10-2-9v-25l4-14 7-13 7-8 11-7 9-4z" fill="#020101"/>
<path transform="translate(133,99)" d="m0 0h10l19 3 15 6 12 8 9 10 6 12 2 7v8l-4 6-5 4-3 1h-7l-7-4-12-18-5-6-14-7-6-1h-10l-10 3-9 6-7 8-6 12-3 13v27l4 17 7 12 9 7 10 4 6 1h9l13-4 8-6 6-7 10-19 5-4 9-1 8 4 4 7v12l-4 11-5 9-9 10-9 7-13 6-13 3-8 1h-9l-21-3-12-4-11-6-12-12-10-17-6-18-2-16v-19l3-17 4-12 7-13 11-12 8-7 17-8 12-3z" fill="#0031FF"/>
<path transform="translate(494,144)" d="m0 0h30l16 4 9 6 6 8 4 13 1 12v37l3 17 2 9v7l-4 6-6 3h-8l-7-4-6-7-2-3-4 1-9 6-15 6-7 1h-17l-13-4-9-7-6-9-2-5-1-10 2-11 6-10 9-7 11-4 26-6 24-6 1-3-2-8-4-6-7-3h-16l-10 4-8 9-5 7-4 2-10-1-5-3-2-4v-10l4-9 6-7 10-6 13-4z" fill="#020101"/>
<path transform="translate(1413,1180)" d="m0 0h12l16 2 13 4 8 6 5 8 3 10 1 9 1 49 4 17v9l-4 6-7 3-9-1-10-9-3-5-4 2-10 6-12 5-11 2h-12l-13-3-9-6-7-8-4-10v-14l3-9 7-9 10-6 13-4 40-9 5-2-1-9-4-7-7-3h-18l-9 4-8 9-5 7-2 1h-11l-6-4-2-5v-7l4-10 7-8 9-5 12-4z" fill="#020101"/>
<path transform="translate(917,1180)" d="m0 0h12l16 2 13 4 8 6 6 10 2 7 1 9 1 48 4 18v11l-4 5-6 3h-7l-7-4-7-8-3-3-14 9-11 4-10 2h-13l-13-3-9-6-7-8-4-11v-12l3-9 6-9 9-6 16-5 43-10h2l-2-10-4-7-7-3h-18l-9 4-8 9-5 7-2 1h-11l-6-4-2-5 1-10 5-10 8-7 11-5 12-3z" fill="#020101"/>
<path transform="translate(1116,923)" d="m0 0h29l16 4 9 6 6 7 4 11 1 8 1 49 4 18v12l-7 6-2 1h-9l-8-5-6-8v-2l-7 4-11 6-11 4-5 1h-19l-10-3-10-6-6-8-3-6-1-5v-11l3-10 6-8 8-6 10-4 44-10 7-2v-7l-4-8-6-4-4-1h-14l-9 3-6 5-8 11-4 3-11-1-5-4-2-6 1-9 5-9 9-8 11-5z" fill="#020101"/>
<path transform="translate(1014,404)" d="m0 0 16 1 14 4 10 6 8 7 7 11 4 12 1 12-2 9-5 5-6 2-7 1h-62l1 9 4 9 5 7 9 5 10 1 10-2 9-5 14-12 3-1h8l6 4 1 2v8l-4 8-7 8-12 7-13 4-7 1h-18l-15-3-14-7-10-9-7-11-4-11-2-12v-17l4-18 7-13 9-10 14-8 11-3z" fill="#020101"/>
<path transform="translate(567,404)" d="m0 0 15 1 12 3 13 7 9 9 8 15 2 10v11l-2 6-5 5-6 2-7 1h-62l2 11 5 10 8 7 10 3 12-1 10-5 10-8 6-5 3-1h7l5 3 2 2v10l-5 9-7 7-16 8-15 3h-18l-18-4-12-7-8-7-7-11-4-10-2-9-1-16 2-15 3-10 5-10 7-9 13-9 11-4z" fill="#020101"/>
<path transform="translate(884,144)" d="m0 0h23l14 4 9 5 10 9 7 11 4 13v15l-3 6-8 5-6 1h-65l2 10 4 9 7 8 11 4h8l13-4 10-8 9-7 8-1 5 2 3 3 1 7-4 10-7 8-14 8-16 4h-22l-14-3-14-7-9-8-7-11-4-11-2-9v-24l4-15 6-12 9-10 11-7 11-4z" fill="#020101"/>
<path transform="translate(894,923)" d="m0 0h22l14 4 10 5 9 8 7 11 4 11 1 6v10l-3 8-8 5-6 1h-65l2 12 6 11 8 6 7 2h9l10-3 11-7 7-7 7-3 7 1 5 3 1 1v10l-4 8-4 5-10 7-12 5-10 2h-23l-16-4-13-7-9-9-7-12-4-15-1-9v-11l3-16 4-11 7-10 7-7 10-6 11-4z" fill="#020101"/>
<path transform="translate(365,144)" d="m0 0h23l12 3 12 6 9 8 7 11 3 7 2 11v8l-3 9-6 4-9 2h-64l2 12 6 11 6 5 9 3h9l10-3 9-6 10-9 6-2 8 1 5 4v10l-5 9-7 7-11 6-12 4-6 1h-21l-14-3-16-8-8-8-7-11-5-16-1-10v-11l3-17 5-12 9-12 10-7 11-5z" fill="#020101"/>
<path transform="translate(1085,662)" d="m0 0h18l14 3 14 7 7 6 8 12 3 7 2 11v8l-3 9-5 4-7 2h-67l2 12 5 10 7 6 7 3h13l11-4 9-7 8-7 8-2 8 3 2 3v9l-4 8-6 7-14 8-14 4-15 1-17-2-12-4-10-6-9-9-7-12-4-14-1-10v-10l2-13 4-12 5-9 9-10 11-7 12-4z" fill="#020101"/>
<path transform="translate(1813,1180)" d="m0 0 9 2 6 8 7 20 16 46 2 9 2-1 19-54 8-21 4-6 3-2 6-1 8 2 5 6 1 2v8l-7 21-21 55-15 39-8 17-7 9-8 5-12 3h-19l-12-3-4-5-1-8 3-6 5-3h18l5-2 5-6 6-13-1-6-22-55-14-36-1-3v-11l4-6 5-3z" fill="#020101"/>
<path transform="translate(1669,662)" d="m0 0h7l6 3 5 9 6 16 13 38 6 18 2-2 21-60 7-17 5-4 10-1 7 4 3 5v10l-6 18-10 26-26 68-7 16-8 11-10 6-6 2-17 1-12-1-7-3-4-5-1-6 3-7 4-3 22-1 6-5 6-12 1-7-16-41-18-45-4-12v-8l3-6 6-4z" fill="#020101"/>
<path transform="translate(1627,923)" d="m0 0h10l6 4 3 7 1 5 7-6 9-6 8-3 6-1h16l12 4 9 6 6 9 4 10 1 8v70l-3 10-5 4-2 1h-10l-6-3-4-6-1-5-1-60-2-11-4-7-4-3-3-1h-12l-8 4-6 7-4 10-1 23-1 41-4 8-6 3h-10l-7-4-3-6-1-8v-83l1-11 3-6 3-3z" fill="#020101"/>
<path transform="translate(645,923)" d="m0 0h10l6 4 3 7 1 5 7-6 9-6 13-4h16l13 4 9 6 6 9 4 11 1 8v68l-2 9-4 5-4 2h-11l-6-4-3-5-1-4-1-59-2-13-5-8-6-3h-12l-8 4-6 7-4 9-1 13-1 52-3 6-5 4-2 1h-10l-8-5-2-5-1-6v-88l2-12 5-5z" fill="#020101"/>
<path transform="translate(309,405)" d="m0 0h11l6 4 3 7v5l4-2 5-5 10-6 9-3h20l12 4 8 6 6 8 4 11 1 8v69l-2 9-5 5-5 2h-7l-8-4-3-6-1-4-1-60-2-11-4-8-5-3-11-1-8 3-8 7-4 8-1 4-1 20-1 44-3 6-5 4-3 1h-8l-6-3-4-5-2-10v-83l1-12 4-7z" fill="#020101"/>
<path transform="translate(1187,662)" d="m0 0h7l6 3 4 5 1 9 8-7 10-6 8-3 6-1h12l12 3 8 4 8 8 4 8 2 7 1 9v67l-2 9-4 5-4 2h-11l-6-3-3-6-1-4-1-58-2-13-4-8-8-4h-11l-8 4-6 7-4 10-1 9-1 55-4 8-5 3h-12l-6-4-3-5-1-6v-91l2-9 4-5z" fill="#020101"/>
<path transform="translate(1112,404)" d="m0 0 9 2 5 5 2 6v4l11-9 10-5 7-2h20l10 3 11 8 6 10 3 10 1 69-1 11-3 6-5 4-3 1h-8l-6-3-4-5-2-12-1-60-4-11-5-4-7-2-10 1-9 6-5 7-2 6-1 7-1 56-3 9-8 5h-8l-8-4-3-5-1-5v-96l3-8 5-4z" fill="#020101"/>
<path transform="translate(599,662)" d="m0 0h8l7 4 3 5 1 4 1 61 2 11 5 8 5 3 9 1 11-4 5-5 5-8 1-5 2-64 3-6 5-4 3-1h8l6 3 4 5 2 10v83l-1 11-3 6-5 4h-12l-7-6-1-2-1-9-5 5-10 7-10 4-7 1h-16l-12-4-9-7-5-8-3-10-1-10v-67l2-9 4-5z" fill="#020101"/>
<path transform="translate(1786,923)" d="m0 0h17l18 3 14 7 5 5 4 6 1 3v8l-4 6-4 2h-11l-6-4-7-8-7-5-3-1h-15l-8 5-1 7 4 5 12 5 26 7 12 5 9 6 5 6 3 6 1 5-1 14-5 12-5 6-12 7-11 3-7 1h-24l-16-4-11-6-7-7-4-9-1-9 3-6 4-3 9-1 6 3 11 14 8 5 3 1h17l8-4 3-4-1-9-6-5-14-5-21-6-16-8-6-5-5-9-1-4v-12l4-11 7-8 10-6z" fill="#020101"/>
<path transform="translate(959,662)" d="m0 0h10l16 2 12 4 10 6 6 9 1 3v9l-5 6-6 2-8-1-6-4-7-8-7-5-3-1h-14l-8 4-2 3 1 7 6 5 20 6 18 5 14 7 8 7 4 8 1 4v10l-3 12-5 8-7 6-8 4-15 4-16 1-18-2-11-4-9-5-7-7-4-9v-11l3-5 7-3 10 2 9 11 5 6 9 4 12 1 9-2 7-6v-8l-5-6-13-5-24-7-9-4-10-6-6-8-3-9v-10l4-11 7-8 9-6 12-4z" fill="#020101"/>
<path transform="translate(1348,662)" d="m0 0h10l21 3 12 5 9 8 4 9v7l-4 6-8 3-10-2-14-14-7-3h-13l-8 4-2 3v6l5 5 10 4 26 7 12 5 8 5 7 7 3 7v17l-4 11-6 8-10 6-12 4-18 2-16-1-15-4-10-6-7-7-4-8-1-10 3-6 4-3 7-1 8 3 10 13 6 5 11 3h7l10-3 5-4 1-7-3-6-12-6-28-8-14-7-9-8-4-9v-14l4-11 6-7 9-6 13-4z" fill="#020101"/>
<path transform="translate(750,1136)" d="m0 0h8l8 4 4 6 1 3 1 123h71l6 3 4 6v11l-5 6-4 2-9 1h-73l-13-1-6-3-4-4-1-3-1-35v-96l1-13 5-7z" fill="#929396"/>
<path transform="translate(1253,923)" d="m0 0h22l15 4 11 6 8 7 5 8 2 7v7l-3 5-3 3-3 1h-10l-8-7-8-10-9-5-4-1h-9l-10 4-7 8-5 12-1 7v11l2 10 6 12 10 7 4 1h13l10-5 7-8 8-11 4-2h7l6 3 4 6v11l-4 9-7 8-8 6-11 5-7 2-8 1h-18l-15-3-14-7-7-6-9-14-4-12-1-5v-24l4-16 6-12 9-10 10-7 14-5z" fill="#020101"/>
<path transform="translate(1359,883)" d="m0 0h12l7 6 2 4 1 7v20l1 5 15 1 5 3 3 7-2 8-8 4-13 1v65l3 5 2 1 20-1 5 3 2 4v8l-6 7-13 4h-23l-11-4-7-7-3-8-2-18-1-59-10-2-5-5-1-7 5-8 11-2 2-31 4-8z" fill="#020101"/>
<path transform="translate(454,364)" d="m0 0 10 1 5 4 3 6 1 8v24h14l6 3 3 4v10l-4 4-7 2h-12v56l1 9 3 6h23l5 4 1 9-3 6-6 4-13 3h-18l-11-3-9-8-4-13-1-13v-60h-8l-7-4-2-5 1-7 4-5 5-2h7v-22l1-10 5-8z" fill="#020101"/>
<path transform="translate(724,144)" d="m0 0h11l5 4 6 14 22 62v2h2l2-8 16-43 8-21 5-8 4-2h10l6 4 3 5v9l-6 17-12 29-12 30-8 18-3 5-6 4-4 1h-10l-7-4-6-9-16-39-18-45-2-6v-10l4-6z" fill="#020101"/>
<path transform="translate(1513,1140)" d="m0 0h7l6 3 4 5 2 5 1 29 14 1 6 3 3 5-1 9-6 5-6 1h-11l1 63 4 8h23l5 5 1 6-3 7-5 4-8 3-7 1h-17l-11-3-8-6-4-8-2-11-1-68-10-2-5-4-1-2v-8l4-6 5-2 7-1 1-28 2-7 5-5z" fill="#020101"/>
<path transform="translate(1249,364)" d="m0 0h7l6 3 4 5 2 6v29h14l7 3 3 5-1 9-6 5-4 1h-13l1 63 3 7 1 1h22l5 4 1 2v9l-5 6-6 3-11 2h-17l-9-2-8-5-4-5-3-8-1-7-1-69-10-2-4-2-3-9 4-8 6-3 7-1 1-29 3-7 4-4z" fill="#020101"/>
<path transform="translate(599,103)" d="m0 0 9 1 7 6 2 5 1 29 1 2h10l9 3 3 4v10l-6 5-4 1-13 1v59l2 8 4 4 20-1 5 3 2 5-1 8-4 5-9 4-6 1h-21l-10-3-7-5-5-10-2-15-1-63-10-2-5-4-1-9 4-6 3-2 10-1v-23l1-9 5-8z" fill="#020101"/>
<path transform="translate(796,622)" d="m0 0h11l6 4 4 8 1 30 15 1 5 3 3 5-1 9-5 4-10 2h-7v62l3 9h10l12-1 5 3 3 7-2 8-6 5-10 3-17 1-12-2-8-4-6-7-3-9-1-8-1-66-11-3-4-4-1-2v-7l4-6 4-2 8-1 1-27 2-8 4-5z" fill="#020101"/>
<path transform="translate(786,883)" d="m0 0h12l7 6 2 5 1 29 1 2 15 1 5 3 2 3v10l-6 5-3 1-14 1v59l2 8 3 4 21-1 5 3 2 5-1 8-4 5-9 4-5 1h-23l-11-4-5-4-5-10-2-16-1-62-10-2-5-4-1-8 4-7 3-2 9-1 1-23 1-9 5-8z" fill="#020101"/>
<path transform="translate(247,360)" d="m0 0h13l6 4 5 9 1 17v120l-4 10-8 7-8 1-8-3-5-5-2-6-1-54v-72l1-17 5-8z" fill="#3A750C"/>
<path transform="translate(584,878)" d="m0 0h8l7 3 6 7 1 4v141l-3 6-7 6-3 1h-9l-8-5-3-4-1-4-1-24v-114l2-9 8-7z" fill="#FFB904"/>
<path transform="translate(1722,1180)" d="m0 0 8 1 6 5 2 9 10-10 7-4 12-1 12 3 8 5 4 5 1 7-3 7-5 4h-9l-10-2h-11l-7 6-4 11-2 9-1 14-1 42-4 8-8 4h-7l-6-3-4-4-2-9v-89l2-10 5-6z" fill="#020101"/>
<path transform="translate(241,144)" d="m0 0h10l5 3 4 8v3l5-5 8-7 6-2h14l12 4 6 5 2 4v10l-5 6-5 2-8-1-10-2h-8l-6 4-4 7-4 15-1 11-1 45-3 7-5 4-3 1h-9l-8-5-2-5-1-8v-85l2-12 5-5z" fill="#020101"/>
<path transform="translate(994,923)" d="m0 0h10l5 3 4 6 2 5 7-9 7-4 4-1h13l10 3 6 4 4 5 1 9-2 5-5 4-8 1-15-3h-6l-6 4-4 5-4 16-1 6-1 46-2 10-5 5-4 2h-10l-6-4-3-4-1-3v-98l2-7 5-5z" fill="#020101"/>
<path transform="translate(1578,662)" d="m0 0h8l6 3 3 4 2 7 9-9 6-4 5-1h11l10 3 8 5 3 4 1 9-3 6-6 4h-7l-17-3-7 2-6 7-4 15-1 6-1 45-2 12-4 5-4 2h-12l-6-4-3-6v-100l3-7 5-4z" fill="#020101"/>
<path transform="translate(1288,1180)" d="m0 0 9 2 5 6 2 6 5-5 7-6 5-2 11-1 12 3 9 5 4 8-1 8-5 6-2 1h-9l-10-2h-10l-6 4-4 7-4 18-1 44-2 13-5 6-5 2h-8l-7-4-3-4-2-13 1-89 2-6 5-5z" fill="#020101"/>
<path transform="translate(662,360)" d="m0 0 9 1 7 6 2 6v140l-3 9-8 5h-9l-8-5-3-9v-139l2-7 7-6z" fill="#020101"/>
<path transform="translate(730,618)" d="m0 0h11l6 4 3 5 1 4v139l-3 9-5 4-9 2-6-2-6-5-2-6v-141l3-8 5-4z" fill="#020101"/>
<path transform="translate(723,360)" d="m0 0 9 1 5 3 4 8v143l-3 7-5 4-3 1h-8l-6-3-4-4-2-9v-135l2-8 5-6z" fill="#020101"/>
<path transform="translate(1432,923)" d="m0 0h10l7 4 3 5 1 4v94l-2 8-4 5-5 2h-10l-6-4-3-4-1-4v-98l3-7 5-4z" fill="#020101"/>
<path transform="translate(672,144)" d="m0 0h11l6 4 3 5 1 4v95l-3 9-5 4-3 1h-9l-6-3-4-6-1-4v-96l2-6 4-5z" fill="#020101"/>
<path transform="translate(873,662)" d="m0 0h8l6 3 4 5 2 8v86l-2 13-4 5-9 3-9-2-5-5-2-4v-101l3-6 5-4z" fill="#020101"/>
<path transform="translate(786,404)" d="m0 0 9 2 5 5 2 4v101l-3 6-5 4-3 1h-8l-6-3-4-5-1-2-1-9v-79l1-14 4-7 5-3z" fill="#020101"/>
<path transform="translate(1191,1204)" d="m0 0 11 1 8 4 8 9 4 10 1 6v15l-3 12-6 10-8 6-10 2h-7l-8-3-7-6-6-12-2-8v-17l4-13 6-9 10-6z" fill="#F8F8F8"/>
<path transform="translate(1478,686)" d="m0 0h11l10 4 7 7 5 10 2 10v12l-2 11-6 11-8 7-6 2-10 1-9-3-8-6-6-11-2-8v-19l4-13 6-8 5-4z" fill="#F8F8F9"/>
<path transform="translate(1529,947)" d="m0 0h12l8 3 8 7 6 12 1 5v20l-3 10-5 8-8 7-7 2h-13l-9-5-6-7-5-13-1-16 2-12 6-12 7-6z" fill="#F8F8F9"/>
<path transform="translate(1622,1204)" d="m0 0 11 1 7 3 7 6 5 10 2 7v22l-4 11-4 6-7 6-5 2-14 1-10-5-7-8-4-9-2-16 2-14 4-10 7-8 7-4z" fill="#F9F9F9"/>
<path transform="translate(1057,1204)" d="m0 0 9 1 6 3 5 4 5 8 3 9 1 14-2 14-5 10-4 5-8 5-4 1h-9l-8-3-7-5-7-13-2-17 2-13 6-12 7-7 6-3z" fill="#F8F8F9"/>
<path transform="translate(878,429)" d="m0 0h13l8 4 6 5 6 12 2 11v11l-3 11-5 8-8 7-10 3-8-1-8-3-7-7-5-10-1-5v-21l4-11 4-6 7-6z" fill="#F9F9F9"/>
<path transform="translate(1416,452)" d="m0 0 4 2 10 11 14 16 5 4 2 3-1 4-10 7-6 3-5 1h-11l-8-3-8-7-5-10v-11l6-10 11-9z" fill="#F7F7F7"/>
<path transform="translate(524,208)" d="m0 0h5v9l-2 11-6 9-7 5-10 3h-10l-8-4-4-5-1-3v-7l4-6 10-5z" fill="#F5F5F5"/>
<path transform="translate(1438,1244)" d="m0 0 2 1v12l-3 10-6 8-12 6-12 1-8-3-6-7-1-8 3-6 10-6z" fill="#F5F5F5"/>
<path transform="translate(942,1244)" d="m0 0 2 1v13l-4 11-5 6-12 6-12 1-8-3-5-5-2-6 1-7 5-5 10-5z" fill="#F5F5F5"/>
<path transform="translate(1146,987)" d="m0 0h4v14l-4 11-7 7-9 4-4 1h-11l-8-4-4-6-1-7 3-6 5-4 10-4z" fill="#F6F6F6"/>
<path transform="translate(1012,427)" d="m0 0h11l10 5 5 6 4 9 1 8-3 1h-48v-7l4-10 7-8z" fill="#F3F3F4"/>
<path transform="translate(564,427)" d="m0 0h11l8 3 7 7 4 8 2 9-4 2h-47l-1-1 1-8 6-12 8-6z" fill="#F3F3F4"/>
<path transform="translate(372,166)" d="m0 0h8l9 3 7 6 5 10 1 9-1 1h-50l1-10 4-8 5-6 7-4z" fill="#F3F3F3"/>
<path transform="translate(891,166)" d="m0 0h8l8 3 8 7 4 8 2 10-2 1h-49l-1-5 4-11 8-9 6-3z" fill="#F3F3F3"/>
<path transform="translate(901,945)" d="m0 0h7l9 3 7 6 5 10 1 9-1 1h-50l1-9 5-10 5-5 7-4z" fill="#F3F3F3"/>
<path transform="translate(1087,685)" d="m0 0h15l8 4 7 9 3 9v6h-51l1-9 5-10 8-7z" fill="#F3F3F4"/>
<path transform="translate(1430,381)" d="m0 0 9 1 6 4 4 6v9l-7 9-11 8-4-2-7-9-4-9 1-7 3-5 7-4z" fill="#F4F4F5"/>
<path transform="translate(1433,880)" d="m0 0h9l6 3 4 5 1 3v8l-3 7-7 4h-11l-7-4-3-6v-9l3-6 5-4z" fill="#020101"/>
<path transform="translate(781,362)" d="m0 0h12l6 4 3 5 1 6-2 8-5 5-5 2h-9l-8-5-3-8 1-8 4-6z" fill="#020101"/>
<path transform="translate(673,101)" d="m0 0h10l5 3 4 5 1 3v8l-3 7-7 4h-11l-6-4-3-4-1-3v-8l3-6 5-4z" fill="#020101"/>
<path transform="translate(874,619)" d="m0 0h7l8 4 3 5 1 9-3 7-4 4-3 1h-12l-6-4-3-5v-11l4-6 5-3z" fill="#020101"/>
<path transform="translate(525,667)" d="m0 0 2 1v31l-1 64h-1v-87l-1-6z" fill="#929396"/>
<path transform="translate(432,667)" d="m0 0 3 3-1 97h-1z" fill="#929396"/>
</svg>
