<?xml version="1.0" encoding="UTF-8"?>
<svg version="1.1" viewBox="0 0 1984 2048" width="1280" height="1280" xmlns="http://www.w3.org/2000/svg">
<path transform="translate(453,23)" d="m0 0h1095l40 3 33 5 26 6 29 9 31 12 32 15 24 14 19 12 18 13 14 11 13 11 10 9 7 6v2l4 2 9 9 7 8 10 11 11 14 14 18 13 20 8 13 10 18 14 29 11 28 8 24 9 33 8 43 4 30v1140l-4 40-6 36-6 27-9 30-7 21-11 26-8 17-12 22-13 21-14 20-9 12-9 11-9 10-7 8-27 27-11 9-13 11-19 14-17 11-15 9-16 9-26 13-27 11-23 8-32 9-32 6-23 3-30 2-31 1h-1049l-34-1-40-3-33-5-26-6-35-11-32-13-23-11-22-12-23-15-14-10-14-11-11-9-10-9-8-7-24-24-7-8-13-15-14-19-13-19-13-21-15-29-11-25-12-34-10-37-7-33-4-26-1-8v-1178l7-37 7-32 8-29 12-33 12-27 10-19 11-19 18-27 14-19 9-11 11-12 7-8 21-21h2v-2l11-9 10-9 20-15 16-11 19-12 18-10 16-8 19-9 29-11 30-9 28-6 25-4 19-2z" fill="#FCFDFD"/>
<path transform="translate(1246,1199)" d="m0 0h141l51 2 26 3 25 6 17 7 15 9 14 11 9 9 13 17 11 21 5 15 5 22 1 8v20l-3 16-6 18-11 21-10 13-9 10-12 11-12 9-3 3v2l26 13 10 6 11 8 15 15 10 15 8 15 7 21 3 18v28l-3 19-6 21-7 16-9 16-11 14-9 10-14 11-18 11-18 8-20 6-21 4-30 3-20 1-64 1h-133l-19-3-12-5-12-9-6-8-5-11-2-7-2-22v-400l1-21 2-11 8-15 8-8 11-7 9-3 15-2z" fill="#949696"/>
<path transform="translate(453,23)" d="m0 0h1095l40 3 33 5 26 6 29 9 31 12 32 15 24 14 19 12 18 13 14 11 13 11 10 9 7 6v2l4 2 9 9 7 8 10 11 11 14 14 18 13 20 8 13 10 18 14 29 11 28 8 24 9 33 8 43 4 30v1140l-4 40-6 36-6 27-9 30-7 21-11 26-8 17-12 22-13 21-14 20-9 12-9 11-9 10-7 8-27 27-11 9-13 11-19 14-17 11-15 9-16 9-26 13-27 11-23 8-32 9-32 6-23 3-30 2-31 1h-1049l-34-1-40-3-33-5-26-6-35-11-32-13-23-11-22-12-23-15-14-10-14-11-11-9-10-9-8-7-24-24-7-8-13-15-14-19-13-19-13-21-15-29-11-25-12-34-10-37-7-33-4-26-1-8v-1178l7-37 7-32 8-29 12-33 12-27 10-19 11-19 18-27 14-19 9-11 11-12 7-8 21-21h2v-2l11-9 10-9 20-15 16-11 19-12 18-10 16-8 19-9 29-11 30-9 28-6 25-4 19-2zm16 28-34 1-29 2-30 4-31 7-24 7-32 12-35 17-27 16-19 13-16 12-13 11-12 11-10 9-9 9-7 8-12 13-7 9-14 19-10 15-14 23-14 27-12 29-11 32-7 27-4 21-2 14-3 41-2 59v1050l2 38 3 32 6 33 7 29 13 37 12 27 11 22 10 16 4 7 10 15 1 2h2l2 5 12 16h2l2 5 3 1 2 4 9 10 12 13 11 11 8 7 10 9 17 13 13 10 17 11 15 9 23 12 14 7 25 10 27 9 36 9 26 4 35 3 22 1h1076l51-4 32-5 32-7 41-14 23-10 19-9 16-9 18-11 14-9v-2l5-2 11-8v-2l5-2v-2l4-2 8-6v-2l4-2 8-7 17-17 7-8 4-5 5-5 1-3h2l6-8v-2h2l8-12 3-4v-2h2v-3h2v-3h2l6-9 10-18 12-22 11-24 9-24 9-27 8-37 4-31 2-30 1-26v-1096l-2-36-4-33-4-23-5-19-10-32-11-28-13-27-12-21-12-19-12-16-7-9-11-14-15-16-20-20-8-7-13-11-5-2v-2l-4-1v-2l-4-1v-2l-12-8h-2v-2h-3v-2l-13-8-11-7-38-19-13-6-29-10-18-6-25-6-42-6-29-2-38-1z" fill="#060102"/>
<path transform="translate(1038,344)" d="m0 0h53l23 2 13 3 9 6 8 9 8 18 10 32 22 83 18 68 18 69 9 35 3 11 1 3h2l2-11 13-46 15-57 15-56 21-79 11-40 6-17 6-12 9-9 11-7 9-3 15-2h63l20 3 13 5 10 7 7 8 7 14 3 17v423l-2 19-4 14-10 16-8 7-9 6-9 3-9 1h-7l-15-4-14-9-8-9-7-14-3-16-1-9-1-65v-244h-2v2l-4 3-4 16-24 95-17 69-28 112-9 29-7 14-6 8-10 10-11 6-6 3-8 2h-21l-12-3-16-7-10-9-9-11-7-12-10-30-16-64-26-100-14-57-13-54-6-21-6-15 1 15v306l-2 16-3 12-6 12-11 12-12 7-9 3-7 1h-8l-10-2-12-6-12-11-9-13-4-15-1-9-1-22 1-417 3-14 6-11 10-10 12-7 13-4z" fill="#AE0326"/>
<path transform="translate(839,1192)" d="m0 0h21l20 4 14 6 10 8 8 8 10 15 12 23 12 30 13 33 16 40 23 57 15 37 22 54 19 47 20 49 13 34 11 33 2 9v16l-3 12-7 11-11 11-17 9-8 2h-16l-13-4-12-7-10-12-9-16-10-21-16-41-10-27-3-5-206-1-2 5-11 29-15 39-11 25-8 15-8 10-10 7-11 4-4 1h-12l-12-3-14-7-10-8-8-11-4-9-2-8v-11l4-19 10-30 43-107 15-39 21-53 15-38 16-41 18-46 18-45 11-25 8-15 9-12h2v-2l11-9 14-7 11-3z" fill="#949595"/>
<path transform="translate(435,335)" d="m0 0h11l27 2 23 3 22 5 27 9 18 8 17 9 15 10 13 10 8 8 2 1v2h2l9 11 9 12 8 13 11 23 6 21 2 11v10l-2 10-6 12-8 10-11 8-13 5-5 1h-12l-9-2-11-6-10-9-12-17-12-20-11-16-9-11-13-13-13-9-16-8-11-4-20-4-8-1h-23l-17 3-13 4-16 8-14 9-12 11-9 9-12 17-10 18-7 17-6 21-5 28-2 22v27l3 34 4 22 7 26 8 19 8 14 9 12 13 13 11 8 14 8 19 7 16 4 13 2h21l18-3 16-5 19-9 12-8 10-9 7-7 11-15 9-16 19-38 8-12 8-7 11-5 10-2h8l15 3 11 6 8 7 7 11 4 9 1 5v25l-3 17-6 18-7 16-12 21-12 16-11 13-11 10-13 10-16 10-23 12-21 8-24 7-22 4-23 2h-13l-36-3-35-5-23-5-25-9-20-10-18-12-11-9-10-9-12-13-10-14-15-24-13-24-10-26-8-26-5-25-5-45-1-13 1-25 3-32 4-24 6-23 8-24 12-25 10-18 12-16 11-14 20-20 17-13 15-10 19-10 25-10 28-8 21-4 17-2z" fill="#002FFE"/>
<path transform="translate(254,1192)" d="m0 0h21l15 4 11 7 7 7 7 10 5 12 1 5 1 19v305l1 76h211l17 1 13 3 10 6 9 9 6 12 3 14v9l-2 10-9 14-8 7-12 6-8 2-10 1-72 1h-162l-45-1-16-3-16-8-10-9-6-10-3-11-1-11-1-38v-400l2-13 4-10 7-10 9-8 13-6z" fill="#949696"/>
<path transform="translate(797,335)" d="m0 0h23l11 3 10 5 10 9 9 14 4 11 2 10 1 10 1 36v259l1 72 1 16-1 38-2 16-4 13-8 14-9 10-7 6-14 7-10 2-13-1-13-4-10-5-12-11-6-10-4-15-2-14-1-15v-164l1-259 3-17 7-14 11-12 10-6z" fill="#42750B"/>
<path transform="translate(1631,335)" d="m0 0h19l13 3 12 6 10 9 7 9 6 13 2 10v452l-3 14-7 13-11 11-14 7-11 3-14 1-16-4-12-6-12-11-6-10-3-13-2-20-1-40v-393l2-17 7-14 12-12 11-7z" fill="#FFB607"/>
<path transform="translate(1275,1498)" d="m0 0h28l73 1 38 2 19 3 16 6 12 7 10 9 8 9 7 14 2 8v21l-4 16-8 16-11 12-10 7-13 6-14 4-21 3-32 2-38 1h-59l-3-2-1-3-1-42v-95z" fill="#FDFEFE"/>
<path transform="translate(1280,1287)" d="m0 0h38l59 1 28 2 20 4 13 5 10 7 9 9 7 12 3 10v21l-4 13-6 11-8 10-7 7-12 7-13 4-20 3-36 2h-85l-2-3-1-32v-60l1-32z" fill="#FDFEFE"/>
<path transform="translate(849,1324)" d="m0 0 4 4 8 16 17 47 13 35 18 48 15 42v2l-2 1-38 1h-70l-34-1 1-7 15-43 13-36 16-44 16-45 6-17z" fill="#FDFEFE"/>
<path transform="translate(1385,501)" d="m0 0 2 2 1 35 2 24 1 1v7l1 9v32l1 6-1 4v99l1 17v52l-1 7 1 8-1 4 1 7-1 3h2l2 20 2 5 2 8 2 5h3v2l2 1 2 4 3 1 1 2 6 2v2l3-1 2 2 6 1 14 1v2l7-1 9-3 5-3h5v4l2 1-11 8-8 4-13 2h-7l-15-4-14-9-8-9-7-14-3-16-1-9-1-65v-244h-2v2l-4 2 3-11z" fill="#CF1139"/>
<path transform="translate(1368,344)" d="m0 0h63l20 3 13 5 10 7 7 8 7 14 3 17v50l-1 365h-1l-1-180v-178l-1-6-1-39-1-15-1-5-3-10-3-5-1-6 1-2h-4l-5-3-3-3v-2h-2l-3-3-4 1-5-1-9-1-1 1h-10l-13-2h-33l-5 1-19-1h-3l-7 2h-2v2l-4 1-5 6-5 4 2 1h-2v3h-2v2h-2v3l-4 3-3 8-4 1-1 2-1-4-5 2 3-11 7-14 9-9 11-7 9-3z" fill="#D01637"/>
<path transform="translate(977,546)" d="m0 0h1l1 209 2 55 2 26h2v5h2l1 5 4 6v3h2v2l5 1 5 6 4 2-1 2 4-1 5 2 5 1 11 4 4 1 2-2 10-1 4-1 7-2 4 1-2 6-12 7-9 3-7 1h-8l-10-2-12-6-12-11-9-13-4-15-1-9-1-22z" fill="#CC3240"/>
<path transform="translate(1160,800)" d="m0 0h2l2 4 2 2 2 3 1 5 7 18 1 4 3 3 2 4-1 2h3v3h5l-1 3h2l2 5h3l4 4 3 1v2h3l1 2h5l10 4h5l7 2 11 1 15-3 11-1 7-2 2-1 2 2-8 8-11 6-6 3-8 2h-21l-12-3-16-7-10-9-9-11-7-12-10-30-3-11z" fill="#D21A37"/>
<path transform="translate(1079,498)" d="m0 0 3 1 1 19v306l-2 16-3 12-4 9-1-4 1-7-1-3 2-5 1-7 1-8 1-20-1-13v-100l1-11v-25l1-14v-52l1-11h1v-56z" fill="#D34338"/>
<path transform="translate(1038,344)" d="m0 0h53l23 2 13 3 7 4-4 3-4-1-5-1v-2l-10-1-3 1-2-1v2h-6l-4 1h-8l-6-1-1 1h-6-4l-8-1-12-1-4 1-8-1-2 2-3-1-4 1-4-1-7 1-7 2-4 4-3 1-1 3-4-1-1-3-1-2-2-1 12-7 13-4z" fill="#D11937"/>
<path transform="translate(1477,365)" d="m0 0 4 2 7 14 3 17v50l-1 365h-1l-1-180v-178l-1-6-1-39-1-15-1-5-3-10-3-5z" fill="#BC5259"/>
<path transform="translate(1385,501)" d="m0 0 2 2v48l-1 31 1 233 1 19 1 5v9h-1l-3-22-1-65v-244h-2v2l-4 2 3-11z" fill="#FFB607"/>
<path transform="translate(989,364)" d="m0 0 2 2 6 1-2 5-4 8h-4v3 7l-2 12-2 8-1 11-1 19-1 3-1 20-1 7h-1v-78l3-14 6-11z" fill="#D9322F"/>
<path transform="translate(1488,693)" d="m0 0h1l1 73h1v55l-2 19-4 14-2 3h-2v-6l2-2 2-5 1-23-1-48v-13l2-31z" fill="#D72D30"/>
<path transform="translate(866,666)" d="m0 0h1l1 26 1 72 1 16-1 38-2 16-2 4v-98z" fill="#949696"/>
<path transform="translate(1385,501)" d="m0 0 2 2v48l-1 31v33l-1 18h-1v-116h-2v2l-4 2 3-11z" fill="#CBA64C"/>
<path transform="translate(1246,643)" d="m0 0 1 3-1 9-2 9-3 5-1 4 2 1h-2v8h-2v2h-2l-1 4-2-5h2l2-11 8-28z" fill="#DA372E"/>
<path transform="translate(989,364)" d="m0 0 2 2 6 1-2 5-4 8-5-1-4-4 4-8z" fill="#CD1535"/>
<path transform="translate(1268,561)" d="m0 0 1 4-2 12-1 5 1 6-3-1-1 3-4 8-1-2 9-34z" fill="#D72F2F"/>
<path transform="translate(1314,768)" d="m0 0h2l-2 10-5 20-2 1 1-9 2-13z" fill="#DE4529"/>
<path transform="translate(1180,486)" d="m0 0 2 3 6 23v4h-2l-4-13-3-15z" fill="#D62832"/>
<path transform="translate(1336,682)" d="m0 0 1 4-7 28h-1l-1-6 2-9 3-12h2z" fill="#D82F30"/>
<path transform="translate(1325,728)" d="m0 0 1 2-7 28h-1v-10l4-15z" fill="#DB3B2C"/>
<path transform="translate(1172,458)" d="m0 0 2 1 6 23-1 5-2-3-1-8-2-3-1-8-1-1z" fill="#DA342F"/>
<path transform="translate(1257,599)" d="m0 0 2 4-3 14v2l-2 1-3 8-1-2z" fill="#DE442A"/>
<path transform="translate(1193,535)" d="m0 0 2 4 4 15-1 5-2-3-4-15-1-5z" fill="#D62A31"/>
<path transform="translate(1239,670)" d="m0 0 1 3 2 1h-2v8h-2v2h-2l-1 4-2-5h2l2-11z" fill="#D62B31"/>
<path transform="translate(1382,501)" d="m0 0h1l-1 9-4 12-2 9h-1v-7l3-12z" fill="#D32631"/>
<path transform="translate(1204,576)" d="m0 0 2 4 3 11v5l-3-1-1-2v-6l1-2h-2l-1-6z" fill="#D8342D"/>
<path transform="translate(1487,840)" d="m0 0 1 4-3 10-2 3h-2v-6l2-2 2-5z" fill="#DA372E"/>
<path transform="translate(1122,640)" d="m0 0 2 4 2 3v7h-3l-2-4-1-6h2l-1-3z" fill="#D42433"/>
<path transform="translate(1268,561)" d="m0 0 1 4-2 12-3 3-1-4 4-14z" fill="#D8332E"/>
<path transform="translate(1164,425)" d="m0 0 2 4 4 16h-2l-4-8-1-10z" fill="#D72F2F"/>
<path transform="translate(1153,766)" d="m0 0 2 3 2 7v7h-2l-3-13z" fill="#DB472B"/>
<path transform="translate(1069,860)" d="m0 0 4 3-6 7-2-1 2-7z" fill="#D11B35"/>
<path transform="translate(1128,676)" d="m0 0 2 1 2 3 2 1-1 11-2-3z" fill="#DE422A"/>
<path transform="translate(1188,516)" d="m0 0 2 4 2 9h-2l-3-7z" fill="#DA392C"/>
<path transform="translate(1180,486)" d="m0 0 2 3 2 10h-2l-3-9z" fill="#DB392D"/>
</svg>
